<svg width="389" height="136" viewBox="0 0 389 136" fill="none" xmlns="http://www.w3.org/2000/svg">
<path d="M55.7114 132.766C56.0794 133.613 56.6714 134.349 57.5074 134.875C59.9981 136.443 63.2314 135.571 64.9648 132.862C65.5528 131.946 65.8634 130.938 65.9621 129.938L58.3888 134.313L55.7114 132.766Z" fill="white"/>
<path d="M63.7537 124.894C61.343 123.422 58.0124 124.462 56.3217 127.216C55.1644 129.102 55.0044 131.143 55.711 132.766L58.3884 134.312L65.963 129.938C66.1657 127.891 65.399 125.899 63.7537 124.894Z" fill="white"/>
<path d="M63.6261 6.141C63.9901 4.013 63.1821 1.91166 61.3528 0.768996C58.8141 -0.813671 55.7608 0.104995 53.9928 2.98766C53.3474 4.03966 53.0221 5.165 52.9728 6.245L58.3888 3.117L63.6261 6.141Z" fill="white"/>
<path d="M55.3228 10.8864C57.7161 12.2744 61.1014 11.1451 62.7774 8.40111C63.2214 7.67311 63.4948 6.90644 63.6268 6.14111L58.3881 3.11711L52.9721 6.24511C52.8828 8.16777 53.6974 9.94511 55.3228 10.8864Z" fill="white"/>
<path d="M149.191 91.0265H163.491C179.281 91.0265 185.537 78.4945 185.239 66.1785C184.941 54.4025 178.585 42.6278 163.491 42.6278H149.191V91.0265ZM198.247 66.2865C198.546 85.4078 187.821 104.745 163.491 104.745H136.182V29.1238H163.491C187.325 29.1238 197.95 47.5971 198.247 66.2865Z" fill="#393536"/>
<path d="M219.302 29.1234V91.5661H255.052V104.745H206.194V29.1234H219.302Z" fill="#393536"/>
<path d="M291.004 105.071H277.398L248.502 29.124H263.198L284.152 88.0014L305.204 29.124H319.901L291.004 105.071Z" fill="#393536"/>
<path d="M340.462 42.4111V66.6098H360.422C368.763 66.6098 372.338 60.5604 372.338 54.5111C372.338 48.4618 368.665 42.4111 360.422 42.4111H340.462ZM388.922 104.744H373.331L353.073 79.4671H340.462V104.744H327.354V29.0151C338.377 29.0151 349.399 29.1231 360.422 29.1231C376.807 29.2311 385.446 41.1151 385.446 54.1871C385.446 64.5578 381.077 75.0364 367.87 77.9538L388.922 103.774V104.744Z" fill="#393536"/>
<path d="M88.5968 67.4379C76.6715 71.6673 64.2661 72.2699 52.0248 75.0113C51.6581 75.0926 51.2608 75.2219 50.8128 75.3979C54.0448 77.3393 56.8728 79.0739 59.7421 80.7406C60.5061 81.1819 61.3288 80.5739 62.1235 80.3713C65.4781 79.5246 67.9461 81.0419 68.5861 84.3219C69.1928 87.4259 67.4995 90.4513 64.6115 91.4273C61.6355 92.4299 58.8968 90.8806 58.1675 87.4886C57.8208 85.8793 57.0688 84.9099 55.7675 84.1526C52.7008 82.3766 49.5968 80.6366 46.6955 78.6086C44.3195 76.9499 41.9648 76.5499 39.0861 77.6699C37.6341 78.2339 36.0181 78.2219 34.4875 78.5646C34.6168 80.5353 35.6861 80.6273 36.3595 81.0353C44.4768 85.9379 52.6341 90.7739 60.7448 95.6899C62.1221 96.5259 63.3408 96.7739 65.0368 96.1286C68.2408 94.9099 70.7408 96.3233 71.5528 99.4326C72.3768 102.591 70.7861 105.785 67.8155 106.925C64.9141 108.042 61.9381 106.545 61.1488 103.305C60.7835 101.81 60.0528 100.917 58.8541 100.198C49.3501 94.5086 39.8715 88.7713 30.3728 83.0686C28.5048 81.9486 22.6341 84.1179 21.6635 86.2299C21.1528 87.3353 22.0781 87.5246 22.6115 87.8539C25.6275 89.7139 28.6768 91.5259 31.7168 93.3499C40.9901 98.9099 50.2755 104.451 59.5301 110.045C61.0275 110.951 62.3768 111.414 64.3195 110.787C67.3661 109.805 70.0208 111.771 70.4301 114.826C70.8515 117.974 68.8368 121.107 65.8568 121.933C62.9488 122.741 60.1901 121.026 59.8048 117.798C59.5981 116.063 58.7888 115.225 57.5101 114.459C44.8888 106.897 32.2528 99.3593 19.7195 91.6513C17.4395 90.2499 16.0515 90.7273 14.4808 92.9099C13.0088 94.9539 11.4635 96.9379 10.0888 99.0686C7.87147 102.498 4.77413 103.381 2.08746 101.534C1.89546 101.405 1.7448 101.245 1.57947 101.097V101.514L55.7115 132.766C55.0048 131.143 55.1635 129.102 56.3208 127.217C58.0128 124.462 61.3435 123.422 63.7541 124.894C65.3995 125.899 66.1661 127.891 65.9621 129.938L115.197 101.514V48.3473C108.223 57.3793 99.2755 63.6499 88.5968 67.4379Z" fill="#6EC3D0"/>
<path d="M40.8156 65.8669C47.4569 64.3175 54.1423 63.3402 60.8236 62.3162L54.1956 58.5295C52.4836 59.8322 50.2436 60.1509 48.5009 59.1095C46.0303 57.6362 45.3569 54.0482 47.0129 51.1775C48.6209 48.3869 51.8809 47.3362 54.3796 48.7989C56.3849 49.9735 57.1956 52.2402 56.6596 54.6015L68.1103 61.1429C69.9756 60.8242 71.8383 60.4909 73.6996 60.1162C74.9516 59.8669 76.2396 59.7962 78.0023 58.6362C73.6356 56.0149 69.6409 53.6055 65.6356 51.2109C63.1249 49.7082 60.6076 48.2202 58.0836 46.7442C55.7609 45.3842 53.7449 43.7389 50.4129 44.9282C47.7143 45.8909 45.3356 43.3175 45.0823 40.2095C44.8356 37.1869 46.7329 34.3909 49.5409 33.6415C52.3023 32.9029 54.9996 34.2789 55.4969 37.2135C55.8743 39.4482 57.0996 40.4775 58.7529 41.4615C66.5929 46.1349 74.4422 50.8029 82.1769 55.6482C84.2342 56.9362 86.1182 56.8429 88.3262 55.9295C91.6142 54.5709 94.6503 52.8789 97.4649 50.8895L56.2369 26.1469C54.4943 27.6535 52.0876 28.0735 50.2369 26.9682C47.7676 25.4962 47.0943 21.9069 48.7503 19.0375C50.3596 16.2469 53.6183 15.1949 56.1183 16.6589C58.0156 17.7709 58.8489 19.8642 58.4783 22.0882L101.34 47.8122C104.74 44.8135 107.76 41.3095 110.393 37.2762C111.172 36.0842 112.016 35.2015 112.892 34.5842L63.6263 6.14154C63.4956 6.90554 63.2223 7.67354 62.7769 8.40154C61.1009 11.1455 57.7169 12.2749 55.3223 10.8869C53.6983 9.94554 52.8836 8.16821 52.9729 6.24421L1.57959 35.9149V92.7655C11.2129 77.9029 24.6556 69.6335 40.8156 65.8669Z" fill="#A5C21E"/>
<path d="M1.4289 92.9899C-0.539103 96.0499 -0.460437 99.2446 1.57956 101.097V92.7659C1.53156 92.8419 1.47823 92.9112 1.4289 92.9899Z" fill="white"/>
<path d="M118.282 34.3779C116.516 33.2432 114.639 33.3499 112.891 34.5846L115.198 35.9152V48.3472C116.54 46.6059 117.819 44.7766 119.014 42.8286C121.231 39.2112 120.912 36.0686 118.282 34.3779Z" fill="white"/>
<path d="M112.891 34.5843C112.017 35.2016 111.171 36.0843 110.393 37.2763C107.761 41.3083 104.739 44.8136 101.339 47.8123L58.4779 22.0883C58.8499 19.8643 58.0152 17.771 56.1179 16.659C53.6179 15.195 50.3592 16.247 48.7499 19.0376C47.0952 21.907 47.7672 25.4963 50.2379 26.9683C52.0872 28.0736 54.4952 27.6536 56.2366 26.147L97.4646 50.8896C94.6499 52.879 91.6139 54.571 88.3272 55.9296C86.1179 56.843 84.2352 56.9363 82.1779 55.6483C74.4419 50.803 66.5926 46.135 58.7526 41.4616C57.0992 40.4776 55.8739 39.447 55.4966 37.2136C55.0006 34.279 52.3019 32.903 49.5419 33.6403C46.7326 34.391 44.8352 37.187 45.0819 40.2096C45.3352 43.3176 47.7139 45.8896 50.4126 44.9283C53.7446 43.739 55.7619 45.3843 58.0832 46.7443C60.6086 48.2203 63.1246 49.7083 65.6366 51.211C69.6406 53.6056 73.6366 56.015 78.0019 58.6363C76.2392 59.7963 74.9512 59.8656 73.6992 60.1163C71.8379 60.491 69.9752 60.8243 68.1112 61.143L56.6592 54.6016C57.1952 52.2403 56.3846 49.9736 54.3806 48.799C51.8819 47.335 48.6219 48.387 47.0126 51.1776C45.3579 54.0483 46.0299 57.6363 48.5006 59.1096C50.2446 60.151 52.4832 59.8323 54.1952 58.5296L60.8232 62.3163C54.1419 63.3403 47.4579 64.3176 40.8152 65.867C24.6566 69.6336 11.2139 77.903 1.58057 92.7656V101.096C1.74457 101.246 1.89524 101.404 2.08724 101.534C4.77391 103.38 7.87124 102.498 10.0886 99.0683C11.4646 96.9376 13.0086 94.9536 14.4806 92.9096C16.0526 90.727 17.4392 90.251 19.7192 91.651C32.2526 99.3603 44.8886 106.896 57.5099 114.459C58.7886 115.224 59.5992 116.063 59.8059 117.798C60.1912 121.027 62.9486 122.74 65.8566 121.932C68.8366 121.107 70.8512 117.974 70.4312 114.826C70.0206 111.771 67.3659 109.806 64.3192 110.787C62.3779 111.415 61.0272 110.951 59.5299 110.044C50.2752 104.451 40.9912 98.9096 31.7166 93.3496C28.6766 91.527 25.6286 89.7136 22.6126 87.8536C22.0792 87.5243 21.1539 87.335 21.6632 86.2296C22.6339 84.1176 28.5046 81.9483 30.3726 83.0683C39.8712 88.771 49.3499 94.5083 58.8552 100.198C60.0539 100.918 60.7832 101.81 61.1486 103.306C61.9379 106.544 64.9139 108.042 67.8152 106.924C70.7859 105.784 72.3766 102.591 71.5539 99.4323C70.7419 96.323 68.2406 94.9096 65.0366 96.1283C63.3406 96.7736 62.1219 96.527 60.7446 95.691C52.6339 90.7736 44.4766 85.939 36.3606 81.035C35.6859 80.627 34.6166 80.535 34.4886 78.5643C36.0179 78.223 37.6339 78.2336 39.0859 77.6696C41.9646 76.5496 44.3192 76.9496 46.6952 78.6096C49.5966 80.6363 52.7006 82.3763 55.7672 84.1523C57.0699 84.9096 57.8206 85.879 58.1686 87.4883C58.8966 90.8803 61.6366 92.4296 64.6112 91.427C67.5006 90.451 69.1926 87.4256 68.5859 84.3216C67.9472 81.0416 65.4779 79.5243 62.1232 80.371C61.3286 80.5736 60.5059 81.1816 59.7419 80.7403C56.8726 79.0736 54.0459 77.339 50.8126 75.3976C51.2606 75.2216 51.6592 75.0923 52.0259 75.011C64.2659 72.2696 76.6712 71.667 88.5966 67.4376C99.2766 63.6496 108.223 57.379 115.197 48.347V35.915L112.891 34.5843Z" fill="white"/>
</svg>
