<svg width="288" height="92" viewBox="0 0 288 92" fill="none" xmlns="http://www.w3.org/2000/svg">
<path d="M107.163 61.6223H117.546C129.011 61.6223 133.552 52.5249 133.336 43.5836C133.12 35.0356 128.506 26.4849 117.546 26.4849H107.163V61.6223ZM142.782 43.6623C142.998 57.5436 135.211 71.5836 117.546 71.5836H97.7175V16.6823H117.546C134.851 16.6823 142.566 30.0943 142.782 43.6623" fill="white"/>
<path d="M175.221 71.8183H165.344L144.36 16.6822H155.032L170.247 59.4263L185.531 16.6822H196.203L175.221 71.8183Z" fill="white"/>
<path d="M211.051 16.6823V62.0156H237.008V71.5836H201.532V16.6823H211.051Z" fill="white"/>
<path d="M252.792 26.3293V43.8973H267.285C273.341 43.8973 275.937 39.5053 275.937 35.1133C275.937 30.7213 273.269 26.3293 267.285 26.3293H252.792ZM287.978 71.5827H276.657L261.949 53.2307H252.792V71.5827H243.274V16.604C251.277 16.604 259.281 16.6827 267.285 16.6827C279.182 16.76 285.454 25.388 285.454 34.8787C285.454 42.408 282.282 50.0147 272.693 52.1333L287.978 70.8773V71.5827Z" fill="white"/>
<path d="M63.1707 44.4986C54.512 47.5693 45.508 48.0066 36.62 49.996C36.3547 50.0546 36.0653 50.1506 35.7413 50.2773C38.088 51.6866 40.14 52.9453 42.2227 54.156C42.7773 54.476 43.3733 54.0346 43.9507 53.888C46.388 53.2733 48.1787 54.3746 48.6427 56.7546C49.0853 59.0093 47.8547 61.2053 45.7587 61.9146C43.596 62.6426 41.6093 61.516 41.0787 59.0546C40.8267 57.8866 40.2813 57.1826 39.3387 56.6333C37.1107 55.3426 34.8587 54.08 32.752 52.6093C31.028 51.404 29.3173 51.1133 27.2293 51.9266C26.1733 52.336 25 52.328 23.8907 52.576C23.9827 54.0066 24.7587 54.0746 25.2493 54.3706C31.1413 57.9293 37.0627 61.44 42.9507 65.008C43.9507 65.6146 44.836 65.7946 46.0653 65.3266C48.3933 64.4426 50.208 65.468 50.7973 67.724C51.3947 70.0186 50.2413 72.3346 48.0813 73.164C45.976 73.9746 43.8173 72.888 43.2467 70.536C42.9787 69.4506 42.448 68.8026 41.58 68.2813C34.6787 64.1493 27.7987 59.9853 20.9013 55.8453C19.5467 55.0333 15.2853 56.608 14.58 58.1413C14.2093 58.9426 14.8813 59.08 15.268 59.32C17.4573 60.6693 19.672 61.9866 21.8773 63.3093C28.6093 67.3453 35.3493 71.3693 42.068 75.4293C43.1547 76.0866 44.136 76.4226 45.5453 75.968C47.7587 75.2546 49.6867 76.6826 49.9813 78.8986C50.2893 81.1866 48.8253 83.46 46.6627 84.06C44.5507 84.644 42.5493 83.4 42.2693 81.0573C42.1187 79.7973 41.532 79.1893 40.6013 78.6333C31.44 73.144 22.2667 67.6706 13.1693 62.076C11.5133 61.0586 10.508 61.4066 9.36533 62.9906C8.29866 64.4746 7.176 65.9146 6.17733 67.4613C4.568 69.9506 2.31866 70.592 0.367996 69.252C0.231996 69.1573 0.12 69.0413 0 68.9333V69.2346L39.2973 91.924C38.7827 90.7453 38.9013 89.264 39.74 87.8973C40.968 85.8946 43.3853 85.14 45.1347 86.208C46.3293 86.9373 46.8867 88.384 46.7387 89.8706L82.4813 69.2346V30.6386C77.416 37.196 70.9213 41.748 63.1707 44.4986Z" fill="white"/>
<path d="M28.4832 43.3587C33.3058 42.2347 38.1578 41.524 43.0085 40.78L38.1965 38.032C36.9552 38.9773 35.3285 39.208 34.0632 38.452C32.2685 37.384 31.7805 34.7773 32.9818 32.6947C34.1498 30.668 36.5165 29.9053 38.3325 30.9667C39.7872 31.82 40.3738 33.4667 39.9845 35.18L48.2978 39.9293C49.6525 39.6973 51.0058 39.456 52.3552 39.184C53.2645 39.0013 54.1992 38.9507 55.4778 38.1093C52.3085 36.2067 49.4072 34.4573 46.5018 32.72C44.6778 31.628 42.8512 30.548 41.0178 29.476C39.3325 28.4893 37.8698 27.2947 35.4512 28.1587C33.4912 28.856 31.7658 26.9893 31.5818 24.732C31.4018 22.5373 32.7792 20.508 34.8165 19.964C36.8218 19.428 38.7805 20.4267 39.1405 22.5573C39.4152 24.1787 40.3045 24.928 41.5058 25.6413C47.1965 29.0333 52.8965 32.4227 58.5112 35.94C60.0045 36.8747 61.3698 36.808 62.9738 36.144C65.3605 35.1573 67.5645 33.9293 69.6085 32.4853L39.6778 14.524C38.4125 15.6173 36.6658 15.9213 35.3245 15.12C33.5298 14.0507 33.0405 11.4453 34.2418 9.36267C35.4112 7.33734 37.7765 6.57333 39.5912 7.636C40.9685 8.44267 41.5752 9.96266 41.3045 11.5773L72.4205 30.252C74.8898 28.076 77.0818 25.5307 78.9925 22.6027C79.5578 21.7373 80.1698 21.0973 80.8071 20.648L45.0431 -1.338e-06C44.9485 0.554665 44.7485 1.112 44.4272 1.64134C43.2098 3.63467 40.7512 4.45333 39.0138 3.44533C37.8365 2.76133 37.2432 1.472 37.3085 0.0759976L0.000488281 21.6147V62.8853C6.99515 52.096 16.7512 46.0933 28.4832 43.3587Z" fill="white"/>
</svg>
