<svg width="150" height="150" viewBox="0 0 150 150" fill="none" xmlns="http://www.w3.org/2000/svg">
<circle cx="75" cy="75" r="75" fill="white"/>
<path d="M103.597 74.4379C91.6715 78.6673 79.2661 79.2699 67.0248 82.0113C66.6581 82.0926 66.2608 82.2219 65.8128 82.3979C69.0448 84.3393 71.8728 86.0739 74.7421 87.7406C75.5061 88.1819 76.3288 87.5739 77.1235 87.3713C80.4781 86.5246 82.9461 88.0419 83.5861 91.3219C84.1928 94.4259 82.4995 97.4513 79.6115 98.4273C76.6355 99.4299 73.8968 97.8806 73.1675 94.4886C72.8208 92.8793 72.0688 91.9099 70.7675 91.1526C67.7008 89.3766 64.5968 87.6366 61.6955 85.6086C59.3195 83.9499 56.9648 83.5499 54.0861 84.6699C52.6341 85.2339 51.0181 85.2219 49.4875 85.5646C49.6168 87.5353 50.6861 87.6273 51.3595 88.0353C59.4768 92.9379 67.6341 97.7739 75.7448 102.69C77.1221 103.526 78.3408 103.774 80.0368 103.129C83.2408 101.91 85.7408 103.323 86.5528 106.433C87.3768 109.591 85.7861 112.785 82.8155 113.925C79.9141 115.042 76.9381 113.545 76.1488 110.305C75.7835 108.81 75.0528 107.917 73.8541 107.198C64.3501 101.509 54.8715 95.7713 45.3728 90.0686C43.5048 88.9486 37.6341 91.1179 36.6635 93.2299C36.1528 94.3353 37.0781 94.5246 37.6115 94.8539C40.6275 96.7139 43.6768 98.5259 46.7168 100.35C55.9901 105.91 65.2755 111.451 74.5301 117.045C76.0275 117.951 77.3768 118.414 79.3195 117.787C82.3661 116.805 85.0208 118.771 85.4301 121.826C85.8515 124.974 83.8368 128.107 80.8568 128.933C77.9488 129.741 75.1901 128.026 74.8048 124.798C74.5981 123.063 73.7888 122.225 72.5101 121.459C59.8888 113.897 47.2528 106.359 34.7195 98.6513C32.4395 97.2499 31.0515 97.7273 29.4808 99.9099C28.0088 101.954 26.4635 103.938 25.0888 106.069C22.8715 109.498 19.7741 110.381 17.0875 108.534C16.8955 108.405 16.7448 108.245 16.5795 108.097V108.514L70.7115 139.766C70.0048 138.143 70.1635 136.102 71.3208 134.217C73.0128 131.462 76.3435 130.422 78.7541 131.894C80.3995 132.899 81.1661 134.891 80.9621 136.938L130.197 108.514V55.3473C123.223 64.3793 114.275 70.6499 103.597 74.4379Z" fill="#6EC3D0"/>
<path d="M55.8156 72.8668C62.4569 71.3175 69.1423 70.3402 75.8236 69.3162L69.1956 65.5295C67.4836 66.8322 65.2436 67.1508 63.5009 66.1095C61.0303 64.6362 60.3569 61.0482 62.0129 58.1775C63.6209 55.3868 66.8809 54.3362 69.3796 55.7988C71.3849 56.9735 72.1956 59.2402 71.6596 61.6015L83.1103 68.1428C84.9756 67.8242 86.8383 67.4908 88.6996 67.1162C89.9516 66.8668 91.2396 66.7962 93.0023 65.6362C88.6356 63.0148 84.6409 60.6055 80.6356 58.2108C78.1249 56.7082 75.6076 55.2202 73.0836 53.7442C70.7609 52.3842 68.7449 50.7388 65.4129 51.9282C62.7143 52.8908 60.3356 50.3175 60.0823 47.2095C59.8356 44.1868 61.7329 41.3908 64.5409 40.6415C67.3023 39.9028 69.9996 41.2788 70.4969 44.2135C70.8743 46.4482 72.0996 47.4775 73.7529 48.4615C81.5929 53.1348 89.4422 57.8028 97.1769 62.6482C99.2342 63.9362 101.118 63.8428 103.326 62.9295C106.614 61.5708 109.65 59.8788 112.465 57.8895L71.2369 33.1468C69.4943 34.6535 67.0876 35.0735 65.2369 33.9682C62.7676 32.4962 62.0943 28.9068 63.7503 26.0375C65.3596 23.2468 68.6183 22.1948 71.1183 23.6588C73.0156 24.7708 73.8489 26.8642 73.4783 29.0882L116.34 54.8122C119.74 51.8135 122.76 48.3095 125.393 44.2762C126.172 43.0842 127.016 42.2015 127.892 41.5842L78.6263 13.1415C78.4956 13.9055 78.2223 14.6735 77.7769 15.4015C76.1009 18.1455 72.7169 19.2748 70.3223 17.8868C68.6983 16.9455 67.8836 15.1682 67.9729 13.2442L16.5796 42.9148V99.7655C26.2129 84.9028 39.6556 76.6335 55.8156 72.8668Z" fill="#A5C21E"/>
<path d="M78.6261 13.141C78.9901 11.013 78.1821 8.91166 76.3528 7.769C73.8141 6.18633 70.7608 7.105 68.9928 9.98766C68.3474 11.0397 68.0221 12.165 67.9728 13.245L73.3888 10.117L78.6261 13.141Z" fill="white"/>
<path d="M70.3228 17.8864C72.7161 19.2744 76.1014 18.1451 77.7774 15.4011C78.2214 14.6731 78.4948 13.9064 78.6268 13.1411L73.3881 10.1171L67.9721 13.2451C67.8828 15.1678 68.6974 16.9451 70.3228 17.8864Z" fill="white"/>
<path d="M70.7114 139.766C71.0794 140.613 71.6714 141.349 72.5074 141.875C74.9981 143.443 78.2314 142.571 79.9648 139.862C80.5528 138.946 80.8634 137.938 80.9621 136.938L73.3888 141.313L70.7114 139.766Z" fill="white"/>
<path d="M78.7537 131.894C76.343 130.422 73.0124 131.462 71.3217 134.216C70.1644 136.102 70.0044 138.143 70.711 139.766L73.3884 141.312L80.963 136.938C81.1657 134.891 80.399 132.899 78.7537 131.894Z" fill="white"/>
<path d="M16.4289 99.9899C14.4609 103.05 14.5396 106.245 16.5796 108.097V99.7659C16.5316 99.8419 16.4782 99.9112 16.4289 99.9899Z" fill="white"/>
<path d="M133.282 41.3779C131.516 40.2432 129.639 40.3499 127.891 41.5846L130.198 42.9152V55.3472C131.54 53.6059 132.819 51.7766 134.014 49.8286C136.231 46.2112 135.912 43.0686 133.282 41.3779Z" fill="white"/>
<path d="M127.891 41.5843C127.017 42.2016 126.171 43.0843 125.393 44.2763C122.761 48.3083 119.739 51.8136 116.339 54.8123L73.4779 29.0883C73.8499 26.8643 73.0152 24.771 71.1179 23.659C68.6179 22.195 65.3592 23.247 63.7499 26.0376C62.0952 28.907 62.7672 32.4963 65.2379 33.9683C67.0872 35.0736 69.4952 34.6536 71.2366 33.147L112.465 57.8896C109.65 59.879 106.614 61.571 103.327 62.9296C101.118 63.843 99.2352 63.9363 97.1779 62.6483C89.4419 57.803 81.5926 53.135 73.7526 48.4616C72.0992 47.4776 70.8739 46.447 70.4966 44.2136C70.0006 41.279 67.3019 39.903 64.5419 40.6403C61.7326 41.391 59.8352 44.187 60.0819 47.2096C60.3352 50.3176 62.7139 52.8896 65.4126 51.9283C68.7446 50.739 70.7619 52.3843 73.0832 53.7443C75.6086 55.2203 78.1246 56.7083 80.6366 58.211C84.6406 60.6056 88.6366 63.015 93.0019 65.6363C91.2392 66.7963 89.9512 66.8656 88.6992 67.1163C86.8379 67.491 84.9752 67.8243 83.1112 68.143L71.6592 61.6016C72.1952 59.2403 71.3846 56.9736 69.3806 55.799C66.8819 54.335 63.6219 55.387 62.0126 58.1776C60.3579 61.0483 61.0299 64.6363 63.5006 66.1096C65.2446 67.151 67.4832 66.8323 69.1952 65.5296L75.8232 69.3163C69.1419 70.3403 62.4579 71.3176 55.8152 72.867C39.6566 76.6336 26.2139 84.903 16.5806 99.7656V108.096C16.7446 108.246 16.8952 108.404 17.0872 108.534C19.7739 110.38 22.8712 109.498 25.0886 106.068C26.4646 103.938 28.0086 101.954 29.4806 99.9096C31.0526 97.727 32.4392 97.251 34.7192 98.651C47.2526 106.36 59.8886 113.896 72.5099 121.459C73.7886 122.224 74.5992 123.063 74.8059 124.798C75.1912 128.027 77.9486 129.74 80.8566 128.932C83.8366 128.107 85.8512 124.974 85.4312 121.826C85.0206 118.771 82.3659 116.806 79.3192 117.787C77.3779 118.415 76.0272 117.951 74.5299 117.044C65.2752 111.451 55.9912 105.91 46.7166 100.35C43.6766 98.527 40.6286 96.7136 37.6126 94.8536C37.0792 94.5243 36.1539 94.335 36.6632 93.2296C37.6339 91.1176 43.5046 88.9483 45.3726 90.0683C54.8712 95.771 64.3499 101.508 73.8552 107.198C75.0539 107.918 75.7832 108.81 76.1486 110.306C76.9379 113.544 79.9139 115.042 82.8152 113.924C85.7859 112.784 87.3766 109.591 86.5539 106.432C85.7419 103.323 83.2406 101.91 80.0366 103.128C78.3406 103.774 77.1219 103.527 75.7446 102.691C67.6339 97.7736 59.4766 92.939 51.3606 88.035C50.6859 87.627 49.6166 87.535 49.4886 85.5643C51.0179 85.223 52.6339 85.2336 54.0859 84.6696C56.9646 83.5496 59.3192 83.9496 61.6952 85.6096C64.5966 87.6363 67.7006 89.3763 70.7672 91.1523C72.0699 91.9096 72.8206 92.879 73.1686 94.4883C73.8966 97.8803 76.6366 99.4296 79.6112 98.427C82.5006 97.451 84.1926 94.4256 83.5859 91.3216C82.9472 88.0416 80.4779 86.5243 77.1232 87.371C76.3286 87.5736 75.5059 88.1816 74.7419 87.7403C71.8726 86.0736 69.0459 84.339 65.8126 82.3976C66.2606 82.2216 66.6592 82.0923 67.0259 82.011C79.2659 79.2696 91.6712 78.667 103.597 74.4376C114.277 70.6496 123.223 64.379 130.197 55.347V42.915L127.891 41.5843Z" fill="white"/>
</svg>
